<?xml version="1.0" encoding="UTF-8"?>
<svg width="28px" height="28px" viewBox="0 0 28 28" version="1.1" xmlns="http://www.w3.org/2000/svg" xmlns:xlink="http://www.w3.org/1999/xlink">
    <g id="github"  stroke-width="1"  fill-rule="evenodd">
        <path d="M6.409713,-2.58960077e-16 L21.590287,2.58960077e-16 C23.8190838,-1.50463262e-16 24.6272994,0.232064028 25.4421143,0.667831759 C26.2569291,1.10359949 26.8964005,1.74307093 27.3321682,2.55788574 C27.767936,3.37270056 28,4.18091615 28,6.409713 L28,21.590287 C28,23.8190838 27.767936,24.6272994 27.3321682,25.4421143 C26.8964005,26.2569291 26.2569291,26.8964005 25.4421143,27.3321682 C24.6272994,27.767936 23.8190838,28 21.590287,28 L6.409713,28 C4.18091615,28 3.37270056,27.767936 2.55788574,27.3321682 C1.74307093,26.8964005 1.10359949,26.2569291 0.667831759,25.4421143 C0.232064028,24.6272994 1.00308841e-16,23.8190838 -1.72640051e-16,21.590287 L1.72640051e-16,6.409713 C-1.00308841e-16,4.18091615 0.232064028,3.37270056 0.667831759,2.55788574 C1.10359949,1.74307093 1.74307093,1.10359949 2.55788574,0.667831759 C3.37270056,0.232064028 4.18091615,1.50463262e-16 6.409713,-2.58960077e-16 Z M13.8494624,2.33333333 C7.32459677,2.33333333 2.33333333,7.41390038 2.33333333,14.1059673 C2.33333333,19.456726 5.61693548,24.0355086 10.3071237,25.6470085 C10.9092742,25.7579801 11.1209677,25.3768169 11.1209677,25.0632017 C11.1209677,24.764061 11.1068548,23.1139623 11.1068548,22.1007438 C11.1068548,22.1007438 7.81384409,22.8244713 7.12231183,20.6629385 C7.12231183,20.6629385 6.58602151,19.2589071 5.81451613,18.8970434 C5.81451613,18.8970434 4.73723118,18.1395419 5.88978495,18.1540165 C5.88978495,18.1540165 7.06115591,18.2505135 7.70564516,19.3988278 C8.7358871,21.2612199 10.4623656,20.7256615 11.1350806,20.4072214 C11.2432796,19.6352454 11.5490591,19.0996871 11.8877688,18.781247 C9.25806452,18.4821063 6.60483871,18.0912934 6.60483871,13.4497877 C6.60483871,12.122954 6.96236559,11.4571247 7.71505376,10.6079511 C7.59274194,10.2943358 7.19287634,9.00127603 7.83736559,7.33187793 C8.82056452,7.01826268 11.0833333,8.63458743 11.0833333,8.63458743 C12.0241935,8.36439583 13.0356183,8.22447518 14.0376344,8.22447518 C15.0396505,8.22447518 16.0510753,8.36439583 16.9919355,8.63458743 C16.9919355,8.63458743 19.2547043,7.01343783 20.2379032,7.33187793 C20.8823925,9.00610088 20.4825269,10.2943358 20.3602151,10.6079511 C21.1129032,11.4619495 21.5739247,12.1277788 21.5739247,13.4497877 C21.5739247,18.105768 18.8030914,18.4772814 16.1733871,18.781247 C16.6061828,19.1624101 16.9731183,19.8861376 16.9731183,21.0199774 C16.9731183,22.6459518 16.9590054,24.6579143 16.9590054,25.053552 C16.9590054,25.3671672 17.1754032,25.7483304 17.7728495,25.6373588 C22.4771505,24.0355086 25.6666667,19.456726 25.6666667,14.1059673 C25.6666667,7.41390038 20.374328,2.33333333 13.8494624,2.33333333 Z" id="Github" fill-rule="nonzero"></path>
    </g>
</svg>