<svg version="1.0" viewBox="0 0 749 800" xmlns="http://www.w3.org/2000/svg">
    <g transform="translate(0 800) scale(.1 -.1)">

        <path d="m1955 6632-1780-1189v-1434-1434l155-105c140-95 2391-1614 3118-2105l294-198 384 259c211 143 498 336 636 429 268 180 1497 1009 2156 1453l392 265v1436l-1 1436-1774 1185c-977 652-1781 1186-1788 1188-7 1-813-532-1792-1186zm2117 815c438-296 642-433 1946-1312l1171-790 1-1345v-1345l-1712-1159c-942-638-1720-1160-1730-1160-9-1-787 520-1728 1157l-1710 1158v1348 1348l1713 1157c999 675 1719 1154 1729 1152 9-2 153-96 320-209z"/>

        <path d="m2305 6449c-786-529-1505-1011-1597-1073l-167-111-1-1275v-1276l177-120c98-66 813-551 1590-1077 776-526 1418-960 1427-963 15-6 104 53 1606 1066 382 258 903 609 1158 780l462 311v1277 1278l-1605 1072c-882 590-1608 1072-1612 1072s-651-433-1438-961zm2270 299c451-304 1148-773 1548-1043l727-490v-1216-1216l-332-225c-2006-1359-2760-1869-2767-1871-4-1-706 471-1559 1048l-1552 1050 3 1214 2 1215 1550 1046c853 576 1552 1046 1555 1044 3-1 374-251 825-556z"/>

        <path d="m2643 5648-853-599v-1049-1048l823-575c452-315 835-582 850-592l28-18-7 1129c-4 741-3 1510 6 2237 7 609 11 1109 9 1111s-388-266-856-596zm327-1653c0-718-3-1305-7-1305-21 0-379 282-516 405l-155 140-1 756-1 755 88 85c48 47 116 110 152 141 77 66 422 328 433 328 4 0 7-587 7-1305z"/>

        <path d="m4010 4e3c0-1237 3-2250 8-2249 4 0 120 80 257 178l250 178 6 2368 163-443c90-244 166-445 168-447 3-3 76 96 164 220 87 123 163 224 168 225 6 0 7-292 3-726-5-618-4-725 8-720 8 3 127 85 265 182l250 177v1057 1057l-160 106c-88 59-164 107-169 107s-94-130-197-290c-103-159-190-290-193-290s-116 274-251 608l-245 607-187 130c-103 71-214 149-247 173l-61 43v-2251z"/>
    </g>
</svg>
