<?xml version="1.0" encoding="UTF-8"?>
<svg width="28px" height="28px" viewBox="0 0 28 28" version="1.1" xmlns="http://www.w3.org/2000/svg" xmlns:xlink="http://www.w3.org/1999/xlink">
    <g id="twitter"  stroke-width="1"  fill-rule="evenodd">
        <path d="M6.409713,-2.58960077e-16 L21.590287,2.58960077e-16 C23.8190838,-1.50463262e-16 24.6272994,0.232064028 25.4421143,0.667831759 C26.2569291,1.10359949 26.8964005,1.74307093 27.3321682,2.55788574 C27.767936,3.37270056 28,4.18091615 28,6.409713 L28,21.590287 C28,23.8190838 27.767936,24.6272994 27.3321682,25.4421143 C26.8964005,26.2569291 26.2569291,26.8964005 25.4421143,27.3321682 C24.6272994,27.767936 23.8190838,28 21.590287,28 L6.409713,28 C4.18091615,28 3.37270056,27.767936 2.55788574,27.3321682 C1.74307093,26.8964005 1.10359949,26.2569291 0.667831759,25.4421143 C0.232064028,24.6272994 1.00308841e-16,23.8190838 -1.72640051e-16,21.590287 L1.72640051e-16,6.409713 C-1.00308841e-16,4.18091615 0.232064028,3.37270056 0.667831759,2.55788574 C1.10359949,1.74307093 1.74307093,1.10359949 2.55788574,0.667831759 C3.37270056,0.232064028 4.18091615,1.50463262e-16 6.409713,-2.58960077e-16 Z M21.94375,9.925 C22.74375,9.34375 23.44375,8.61875 24,7.8 C23.2625,8.11875 22.4625,8.35 21.6375,8.4375 C22.4875,7.93125 23.13125,7.13125 23.4375,6.18125 C22.65,6.65 21.7625,6.99375 20.8375,7.16875 C20.0875,6.36875 19.025,5.875 17.84375,5.875 C15.34375,5.875 13.2625,8.13125 13.84375,10.9125 C10.44375,10.7375 7.4125,9.1125 5.39375,6.625 C5.0375,7.23125 4.8375,7.93125 4.8375,8.69375 C4.83525462,10.0652767 5.5205301,11.346648 6.6625,12.10625 C5.99375,12.08125 5.35625,11.89375 4.8125,11.5875 L4.8125,11.6375 C4.8125,13.63125 6.21875,15.28125 8.09375,15.6625 C7.44375,15.83125 6.875,15.83125 6.24375,15.7375 C6.7625,17.3625 8.275,18.54375 10.075,18.58125 C8.66875,19.68125 6.90625,20.33125 4.9875,20.33125 C4.65,20.33125 4.33125,20.31875 4,20.28125 C5.8125,21.44375 7.96875,22.11875 10.29375,22.11875 C17.83125,22.11875 21.95625,15.875 21.95625,10.45625 C21.95625,10.28125 21.95625,10.1 21.94375,9.925 Z" id="Researchmap" fill-rule="nonzero"></path>
    </g>
</svg>

