<?xml version="1.0" encoding="UTF-8"?>
<svg width="28px" height="28px" viewBox="0 0 28 28" version="1.1" xmlns="http://www.w3.org/2000/svg" xmlns:xlink="http://www.w3.org/1999/xlink">
    <g id="linkedin"  stroke-width="1"  fill-rule="evenodd">
        <path d="M6.409713,-2.58960077e-16 L21.590287,2.58960077e-16 C23.8190838,-1.50463262e-16 24.6272994,0.232064028 25.4421143,0.667831759 C26.2569291,1.10359949 26.8964005,1.74307093 27.3321682,2.55788574 C27.767936,3.37270056 28,4.18091615 28,6.409713 L28,21.590287 C28,23.8190838 27.767936,24.6272994 27.3321682,25.4421143 C26.8964005,26.2569291 26.2569291,26.8964005 25.4421143,27.3321682 C24.6272994,27.767936 23.8190838,28 21.590287,28 L6.409713,28 C4.18091615,28 3.37270056,27.767936 2.55788574,27.3321682 C1.74307093,26.8964005 1.10359949,26.2569291 0.667831759,25.4421143 C0.232064028,24.6272994 1.00308841e-16,23.8190838 -1.72640051e-16,21.590287 L1.72640051e-16,6.409713 C-1.00308841e-16,4.18091615 0.232064028,3.37270056 0.667831759,2.55788574 C1.10359949,1.74307093 1.74307093,1.10359949 2.55788574,0.667831759 C3.37270056,0.232064028 4.18091615,1.50463262e-16 6.409713,-2.58960077e-16 Z M8.4625,24 L8.46875,24 L8.46875,10.6374999 L4.3125,10.6374999 L4.3125,24 L8.4625,24 Z M6.3875,8.8125 C7.71875,8.8125 8.79375,7.7375 8.79375,6.40625 C8.79375,5.08125 7.7125,4 6.3875,4 C5.05625,4 3.98125,5.08125 3.98125,6.40625 C3.98125,7.73125 5.05625,8.8125 6.3875,8.8125 Z M24.01875,24 L24.01875,16.675 C24.01875,13.0750001 23.2375,10.30625 19.0375,10.30625 C17.01875,10.30625 15.6625,11.4125001 15.10625,12.4625001 L15.05,12.4625001 L15.05,10.6375 L11.06875,10.6375 L11.06875,24 L15.2187501,24 L15.2187501,17.3875 C15.2187501,15.64375 15.55,13.95625 17.7125001,13.95625 C19.8375,13.95625 19.86875,15.95 19.86875,17.5 L19.86875,24 L24.01875,24 Z" id="Linkedin"></path>
    </g>
</svg>