<?xml version="1.0" standalone="no"?>
<!DOCTYPE svg PUBLIC "-//W3C//DTD SVG 20010904//EN"
 "http://www.w3.org/TR/2001/REC-SVG-20010904/DTD/svg10.dtd">
<svg version="1.0" xmlns="http://www.w3.org/2000/svg"
 width="800.000000pt" height="800.000000pt" viewBox="0 0 800.000000 800.000000"
 preserveAspectRatio="xMidYMid meet">
<metadata>
Created by potrace 1.14, written by Peter Selinger 2001-2017
</metadata>
<g transform="translate(0.000000,800.000000) scale(0.100000,-0.100000)"
fill="#000000" stroke="none">
<path d="M3885 7740 c-66 -43 -125 -83 -132 -89 -7 -6 -15 -11 -17 -11 -3 0
-54 -33 -113 -72 -59 -40 -112 -75 -118 -78 -5 -3 -86 -56 -178 -117 -93 -62
-172 -113 -177 -113 -5 0 -10 -4 -12 -8 -3 -8 -184 -132 -192 -132 -3 0 -14
-6 -23 -14 -34 -28 -688 -461 -700 -464 -7 -2 -13 -8 -13 -13 0 -5 -6 -9 -14
-9 -8 0 -16 -4 -18 -8 -4 -10 -307 -212 -318 -212 -5 0 -10 -4 -12 -9 -1 -4
-97 -71 -213 -147 -115 -76 -211 -142 -213 -146 -2 -5 -8 -8 -13 -8 -5 0 -31
-16 -58 -35 -26 -19 -53 -35 -59 -35 -6 0 -12 -4 -14 -8 -3 -8 -265 -188 -293
-202 -15 -7 -159 -104 -165 -111 -3 -3 -29 -20 -58 -37 -30 -18 -63 -42 -75
-52 -11 -11 -25 -20 -29 -20 -8 0 -66 -37 -78 -50 -3 -3 -35 -25 -72 -48 -36
-24 -68 -49 -70 -55 -2 -7 -4 -653 -4 -1436 l1 -1425 75 -53 c41 -29 86 -59
100 -66 14 -6 30 -17 35 -23 6 -6 37 -28 70 -49 33 -21 61 -42 63 -47 2 -4 8
-8 13 -8 6 0 15 -5 22 -10 7 -6 53 -37 102 -70 50 -33 97 -64 105 -70 53 -37
500 -338 620 -418 80 -53 147 -99 150 -102 5 -5 92 -64 400 -270 102 -68 187
-128 188 -132 2 -4 8 -8 13 -8 7 0 95 -56 109 -70 3 -3 142 -97 310 -209 168
-113 307 -207 310 -210 3 -3 17 -12 32 -20 15 -8 37 -22 47 -33 11 -10 24 -18
29 -18 5 0 17 -9 27 -20 10 -11 22 -20 27 -20 4 0 27 -14 51 -30 62 -44 70
-50 207 -142 69 -46 200 -135 291 -196 91 -62 169 -112 173 -112 6 0 64 38 76
50 3 3 13 10 22 15 10 6 84 55 165 110 392 266 616 415 624 415 5 0 9 4 9 9 0
5 18 20 40 33 39 22 450 298 460 308 3 3 64 43 135 90 72 47 135 90 141 95 6
6 75 53 155 105 79 52 146 97 149 100 3 3 136 93 295 200 160 106 311 209 337
227 26 18 52 33 57 33 5 0 11 4 13 8 3 8 166 122 174 122 5 0 65 41 74 50 3 3
66 46 140 95 74 50 139 94 145 98 5 4 51 35 100 67 50 33 95 63 100 67 6 5 43
30 83 57 l72 49 0 1437 0 1437 -25 13 c-14 7 -25 17 -25 22 0 4 -4 8 -10 8
-12 0 -314 201 -318 212 -2 4 -10 8 -18 8 -8 0 -14 5 -14 10 0 6 -5 10 -10 10
-6 0 -38 19 -71 43 -33 23 -68 47 -77 52 -10 6 -91 60 -180 120 -90 61 -171
115 -180 120 -24 14 -195 128 -207 138 -33 26 -340 227 -347 227 -4 0 -8 5 -8
10 0 6 -4 10 -10 10 -8 0 -96 56 -110 70 -3 3 -43 30 -90 60 -47 30 -86 58
-88 63 -2 4 -10 7 -18 7 -8 0 -14 4 -14 8 0 5 -12 15 -27 23 -16 7 -44 26 -64
41 -20 15 -42 28 -48 28 -6 0 -11 5 -11 10 0 6 -4 10 -10 10 -8 0 -96 56 -110
70 -3 3 -50 34 -105 70 -55 36 -109 73 -119 83 -11 9 -24 17 -29 17 -5 0 -26
14 -47 30 -21 17 -43 30 -49 30 -6 0 -11 5 -11 10 0 6 -5 10 -10 10 -11 0 -60
33 -94 63 -11 9 -24 17 -28 17 -8 0 -66 38 -78 50 -3 3 -30 21 -60 40 -30 19
-64 43 -74 52 -11 10 -24 18 -29 18 -5 0 -26 14 -47 30 -21 17 -43 30 -49 30
-6 0 -11 5 -11 10 0 6 -6 10 -13 10 -7 0 -23 9 -35 20 -12 11 -25 20 -30 20
-5 0 -17 9 -27 20 -10 11 -23 20 -30 20 -6 0 -20 8 -31 18 -10 10 -50 37 -89
61 -38 24 -73 49 -77 55 -5 6 -8 7 -8 1 0 -6 -3 -6 -8 1 -9 13 -101 74 -112
74 -4 0 -10 4 -12 8 -2 7 -91 67 -153 104 -6 4 -64 -29 -130 -72z m245 -159
c3 -3 17 -13 31 -21 15 -8 37 -23 50 -32 13 -10 87 -59 164 -110 77 -51 142
-95 145 -98 13 -13 102 -70 109 -70 5 0 11 -3 13 -7 2 -5 91 -67 198 -139 182
-122 476 -321 510 -344 156 -106 313 -210 318 -210 3 0 15 -8 26 -19 12 -10
111 -78 221 -151 110 -74 202 -136 205 -139 3 -3 17 -12 33 -20 15 -8 27 -18
27 -23 0 -4 4 -8 9 -8 5 0 62 -36 126 -80 64 -44 120 -80 125 -80 5 0 10 -4
12 -8 2 -5 98 -71 213 -149 116 -77 311 -209 435 -293 124 -83 253 -170 287
-193 l63 -42 0 -1345 0 -1345 -88 -60 c-48 -33 -95 -64 -104 -70 -10 -5 -66
-43 -125 -84 -60 -41 -218 -148 -352 -238 -134 -91 -282 -192 -330 -224 -47
-32 -93 -63 -101 -69 -126 -85 -357 -241 -365 -247 -5 -4 -91 -62 -190 -128
-99 -66 -182 -122 -185 -125 -15 -15 -71 -50 -80 -50 -5 0 -10 -4 -10 -9 0 -5
-13 -14 -29 -21 -16 -6 -32 -18 -35 -26 -3 -8 -10 -14 -16 -14 -9 0 -65 -35
-80 -50 -3 -3 -13 -9 -22 -15 -30 -17 -313 -210 -318 -216 -3 -3 -16 -12 -29
-19 -14 -7 -30 -17 -35 -22 -26 -21 -189 -128 -196 -128 -5 0 -10 -3 -12 -7
-3 -9 -605 -413 -613 -413 -3 0 -14 -8 -25 -18 -10 -9 -39 -28 -63 -41 l-44
-24 -314 208 c-173 115 -318 213 -324 217 -31 25 -323 220 -337 225 -10 3 -18
9 -18 14 0 5 -7 9 -15 9 -8 0 -15 4 -15 8 0 5 -19 19 -42 32 -24 13 -45 26
-48 30 -3 3 -81 57 -175 120 -93 62 -171 117 -173 122 -2 4 -8 8 -13 8 -6 0
-45 24 -87 53 -42 30 -189 129 -327 222 -137 92 -271 183 -296 202 -26 18 -51
33 -57 33 -6 0 -12 4 -14 8 -1 5 -102 75 -223 157 -121 82 -255 172 -298 202
-43 29 -80 53 -83 53 -3 0 -17 11 -32 25 -15 14 -30 25 -35 25 -7 0 -65 38
-77 50 -3 3 -32 23 -65 45 -33 21 -62 42 -63 47 -2 4 -9 8 -16 8 -7 0 -21 8
-32 17 -11 10 -28 23 -37 28 -9 6 -61 41 -117 78 l-100 68 0 1348 0 1348 208
139 c114 76 209 141 212 144 3 3 108 75 234 159 127 85 235 158 240 162 6 5
40 28 76 51 36 24 70 46 75 51 6 4 156 106 335 227 179 120 524 353 768 517
243 164 453 305 467 313 38 23 448 298 462 310 7 6 24 15 38 22 14 6 25 15 25
19 0 4 9 11 20 14 11 3 26 12 32 18 7 7 66 47 132 89 l119 76 56 -36 c31 -19
58 -38 61 -41z"/>
<path d="M3898 7342 c-57 -37 -110 -72 -118 -79 -25 -19 -393 -263 -397 -263
-2 0 -13 -8 -24 -18 -10 -11 -32 -25 -47 -33 -15 -8 -49 -31 -77 -51 -27 -21
-56 -38 -62 -38 -7 0 -13 -3 -13 -7 0 -5 -21 -21 -48 -38 -26 -16 -51 -33 -57
-38 -10 -8 -235 -158 -280 -187 -13 -8 -130 -87 -260 -175 -130 -88 -244 -165
-253 -170 -44 -27 -138 -91 -150 -102 -7 -7 -17 -13 -22 -13 -5 0 -15 -6 -22
-12 -22 -21 -139 -98 -148 -98 -5 0 -10 -3 -12 -8 -1 -4 -73 -54 -158 -111
-546 -365 -635 -426 -638 -433 -2 -4 -7 -8 -12 -8 -4 0 -36 -19 -70 -42 -34
-24 -69 -48 -78 -53 -23 -14 -75 -48 -87 -58 -5 -4 -22 -16 -37 -28 l-28 -20
0 -147 c0 -81 0 -156 0 -167 4 -190 4 -265 -3 -265 -5 0 -6 -4 -2 -9 4 -8 6
-154 4 -341 0 -8 0 -62 0 -120 2 -264 1 -415 0 -428 -1 -4 0 -11 1 -17 1 -5 1
-41 0 -80 -2 -120 -2 -160 0 -170 1 -5 1 -14 0 -20 -1 -5 -1 -61 -1 -125 1
-126 1 -218 0 -228 -1 -4 -1 -11 1 -17 1 -5 1 -35 1 -65 -3 -288 -1 -348 16
-358 39 -25 517 -349 527 -357 6 -6 36 -26 66 -45 30 -19 57 -37 60 -40 3 -3
26 -19 52 -35 27 -17 48 -33 48 -37 0 -5 5 -8 11 -8 6 0 25 -11 43 -25 18 -14
38 -25 44 -25 6 0 12 -4 14 -8 3 -8 142 -103 638 -437 129 -87 244 -166 256
-177 11 -10 24 -18 28 -18 6 0 64 -38 76 -50 3 -3 13 -9 22 -15 9 -5 68 -45
130 -87 62 -42 174 -117 248 -167 74 -50 140 -95 146 -100 6 -5 51 -35 100
-67 49 -33 91 -61 94 -64 14 -14 70 -50 79 -50 5 0 11 -4 13 -8 2 -4 111 -80
243 -169 l241 -161 38 22 c21 11 46 26 55 31 52 33 298 196 306 203 10 8 356
240 440 295 22 15 49 33 60 42 11 8 54 37 95 64 41 28 135 91 209 141 74 49
138 90 142 90 4 0 9 3 11 8 2 4 70 52 153 107 82 55 158 108 169 118 11 9 26
17 33 17 7 0 13 3 13 8 0 4 9 12 20 17 20 10 461 306 470 315 3 3 106 73 230
155 124 83 229 153 235 158 40 30 127 87 135 87 4 0 10 4 12 8 2 4 44 35 93
67 50 33 92 63 93 68 2 4 7 7 12 7 4 0 51 30 104 66 l96 65 1 97 c1 53 1 100
1 103 -2 9 -2 205 -1 269 0 30 0 100 -1 155 -1 77 -2 821 -1 895 0 8 0 188 0
400 -1 212 0 390 0 395 2 51 2 131 2 182 l-1 61 -66 44 c-37 23 -85 55 -108
70 -23 14 -45 30 -51 35 -5 5 -28 20 -50 33 -22 13 -41 28 -43 32 -2 4 -10 8
-18 8 -8 0 -14 4 -14 9 0 4 -20 19 -45 32 -25 13 -45 27 -45 31 0 5 -5 8 -10
8 -9 0 -65 35 -80 50 -6 7 -149 102 -172 115 -10 6 -71 46 -135 90 -65 44
-126 85 -135 90 -9 6 -58 38 -108 73 -51 34 -96 62 -100 62 -5 0 -10 3 -12 8
-3 7 -323 224 -342 231 -6 2 -16 9 -23 15 -28 25 -42 36 -46 36 -3 0 -197 128
-432 285 -234 157 -431 285 -436 285 -5 0 -9 5 -9 10 0 6 -6 10 -14 10 -8 0
-16 4 -18 8 -1 5 -77 58 -168 118 -91 59 -167 111 -170 114 -7 7 -42 29 -60
37 -8 4 -17 9 -20 12 -8 10 -160 111 -166 111 -4 0 -23 12 -43 28 -77 58 -69
58 -183 -16z m138 -57 c4 -8 10 -15 15 -15 12 0 283 -181 287 -192 2 -4 8 -8
13 -8 10 0 244 -156 273 -182 11 -10 25 -18 32 -18 7 0 14 -3 16 -7 2 -5 37
-30 78 -58 41 -27 77 -52 80 -55 3 -3 13 -9 23 -15 22 -13 670 -448 677 -455
3 -3 39 -27 80 -55 41 -27 77 -53 78 -57 2 -5 8 -8 13 -8 5 0 31 -15 57 -33
49 -34 492 -334 520 -352 8 -5 53 -36 99 -67 46 -32 88 -58 93 -58 4 0 10 -3
12 -7 4 -11 127 -93 138 -93 5 0 10 -4 12 -8 2 -4 93 -68 203 -142 110 -73
202 -136 205 -139 3 -3 19 -14 35 -23 l30 -17 3 -1219 2 -1219 -147 -99 c-82
-54 -150 -101 -153 -104 -3 -3 -68 -47 -145 -99 -311 -209 -512 -346 -556
-378 -26 -18 -51 -33 -57 -33 -6 0 -12 -4 -14 -8 -1 -5 -43 -36 -93 -68 -49
-32 -91 -62 -93 -66 -2 -5 -10 -8 -17 -8 -7 0 -15 -3 -17 -7 -1 -5 -59 -46
-128 -92 -69 -46 -201 -136 -295 -199 -93 -64 -237 -161 -320 -216 -82 -56
-151 -104 -153 -108 -2 -5 -8 -8 -12 -8 -8 0 -207 -134 -235 -158 -6 -5 -15
-11 -20 -13 -12 -5 -128 -82 -135 -89 -5 -6 -259 -178 -288 -195 -9 -6 -62
-41 -118 -78 -93 -63 -102 -67 -125 -55 -27 15 -111 70 -119 78 -5 6 -55 39
-82 55 -10 5 -45 29 -78 53 -33 23 -65 42 -70 42 -6 0 -10 3 -10 8 0 4 -23 20
-50 37 -28 16 -50 33 -50 37 0 4 -4 8 -9 8 -5 0 -82 50 -172 110 -90 61 -236
159 -324 218 -88 59 -161 110 -163 115 -2 4 -10 7 -18 7 -8 0 -14 3 -14 8 0 4
-23 20 -50 37 -28 16 -50 33 -50 37 0 4 -5 8 -11 8 -6 0 -25 11 -43 25 -18 14
-38 25 -44 25 -7 0 -12 4 -12 8 0 5 -12 15 -27 23 -16 8 -30 17 -33 20 -3 3
-68 48 -145 99 -77 52 -141 98 -143 102 -2 4 -8 8 -13 8 -7 0 -125 76 -139 90
-13 13 -70 50 -77 50 -5 0 -20 11 -35 25 -15 14 -30 25 -33 25 -3 0 -27 15
-53 33 -26 18 -110 76 -187 127 -77 52 -144 98 -150 102 -5 5 -50 35 -100 68
-49 32 -96 64 -102 70 -7 6 -30 20 -50 32 -21 13 -43 27 -49 33 -6 5 -95 66
-197 135 l-186 124 2 1215 3 1215 154 105 c85 57 223 149 305 205 83 55 152
104 153 109 2 4 8 7 13 7 5 0 27 12 48 28 21 15 47 33 57 39 11 7 72 49 137
93 65 44 123 80 128 80 5 0 9 5 9 10 0 6 6 10 14 10 8 0 16 4 18 8 2 7 179
130 239 167 42 26 285 191 297 202 6 6 21 15 32 18 11 3 20 10 20 14 0 4 19
18 43 31 23 13 44 26 47 29 5 6 203 140 550 372 69 46 127 87 130 90 3 3 16
12 29 19 14 7 30 17 35 22 26 22 250 168 257 168 5 0 9 5 9 10 0 6 6 10 14 10
8 0 16 4 18 8 5 13 340 232 355 232 7 0 16 -7 19 -15z"/>
<path d="M4271 4018 c1 -1228 5 -2241 9 -2252 5 -16 8 -16 21 -5 15 14 28 24
134 97 33 23 107 75 165 117 58 41 113 80 124 87 10 7 28 20 40 30 21 16 21
16 23 720 1 386 3 914 3 1172 0 259 4 466 8 460 5 -5 25 -54 45 -109 20 -55
48 -131 62 -170 15 -38 28 -74 29 -80 2 -5 6 -17 9 -25 4 -8 44 -116 90 -240
46 -124 87 -225 92 -225 5 0 39 43 77 95 38 52 78 106 88 120 10 14 37 50 59
80 22 30 52 72 67 93 15 20 31 37 35 37 4 0 6 -319 6 -709 -1 -390 1 -713 5
-717 9 -9 36 9 306 199 l212 150 0 1057 0 1057 -130 86 c-71 48 -134 87 -140
87 -5 0 -10 4 -10 8 0 9 -50 36 -55 30 -15 -20 -169 -253 -259 -390 -103 -159
-136 -200 -136 -168 0 5 -13 38 -29 72 -24 53 -40 95 -46 118 -1 3 -12 28 -24
55 -13 28 -24 55 -25 60 -1 6 -10 28 -20 50 -10 22 -26 63 -37 90 -11 28 -24
59 -29 70 -5 11 -20 47 -33 80 -13 33 -28 69 -32 80 -5 11 -9 22 -10 25 -1 3
-6 16 -12 30 -6 14 -19 45 -28 70 -9 25 -23 59 -30 75 -7 17 -21 50 -31 75 -9
25 -20 50 -24 55 -4 6 -10 22 -14 36 -3 15 -19 56 -35 91 -27 61 -35 69 -127
134 -55 38 -126 88 -159 111 -33 23 -100 70 -148 103 l-88 61 2 -2233z"/>
<path d="M3715 6216 c-17 -12 -86 -59 -154 -106 -68 -47 -129 -91 -136 -97 -8
-7 -16 -13 -20 -13 -3 0 -11 -5 -18 -11 -7 -5 -124 -89 -262 -185 -137 -97
-259 -182 -270 -190 -11 -8 -132 -93 -270 -189 -137 -97 -258 -182 -268 -190
-9 -8 -20 -15 -23 -15 -3 0 -23 -13 -44 -30 -21 -16 -43 -30 -49 -30 -6 0 -11
-3 -11 -8 0 -4 -18 -18 -40 -32 -22 -14 -40 -28 -40 -32 0 -5 -6 -8 -13 -8 -8
0 -21 -8 -30 -18 -16 -17 -17 -105 -17 -1065 l0 -1046 176 -123 c97 -68 186
-130 199 -138 28 -18 423 -294 447 -312 9 -7 69 -49 133 -93 64 -44 159 -110
211 -147 52 -38 97 -68 101 -68 4 0 16 -8 27 -19 12 -10 66 -49 121 -86 55
-38 102 -71 105 -75 3 -3 30 -21 60 -40 30 -19 58 -38 61 -43 3 -4 17 -14 31
-21 l26 -14 -1 1537 c-1 1575 6 2671 16 2688 4 6 4 13 0 17 -8 8 -10 117 -2
122 4 2 4 16 2 31 -2 16 -4 36 -4 45 0 26 -11 27 -44 4z m-487 -2227 c0 -702
-3 -1281 -7 -1287 -6 -11 -196 125 -324 233 -138 116 -188 159 -217 185 -19
18 -56 50 -81 72 l-47 40 -1 757 -2 758 112 104 c61 57 122 114 135 127 13 12
28 22 34 22 5 0 10 4 10 8 0 5 21 24 48 43 26 18 56 41 67 51 11 9 74 57 140
106 97 73 121 87 126 73 4 -9 7 -590 7 -1292z"/>
</g>
</svg>
